<svg id="Group_5895" data-name="Group 5895" xmlns="http://www.w3.org/2000/svg" xmlns:xlink="http://www.w3.org/1999/xlink" width="29.71" height="25.564" viewBox="0 0 29.71 25.564">
  <defs>
    <clipPath id="clip-path">
      <rect id="Rectangle_399" data-name="Rectangle 399" width="29.71" height="25.564" fill="none" stroke="#fff" stroke-width="2"/>
    </clipPath>
  </defs>
  <g id="Group_1511" data-name="Group 1511" clip-path="url(#clip-path)">
    <path id="Path_989" data-name="Path 989" d="M1.375,5.958l9.553,8.026c3.521,2,5.009,2,8.531,0l9.553-8.026" transform="translate(-0.339 -1.467)" fill="none" stroke="#fff" stroke-linejoin="round" stroke-width="2"/>
    <path id="Path_990" data-name="Path 990" d="M1.4,15.16c.09,4.236.136,6.354,1.7,7.923s3.738,1.624,8.089,1.733c2.681.067,5.336.067,8.017,0,4.351-.109,6.527-.164,8.089-1.733S28.9,19.4,28.99,15.16c.029-1.362.029-2.716,0-4.078-.09-4.236-.136-6.354-1.7-7.922S23.553,1.535,19.2,1.426c-2.681-.067-5.336-.067-8.017,0-4.351.109-6.527.164-8.09,1.734S1.487,6.846,1.4,11.082C1.367,12.444,1.367,13.8,1.4,15.16Z" transform="translate(-0.339 -0.338)" fill="none" stroke="#fff" stroke-linejoin="round" stroke-width="2"/>
    <line id="Line_116" data-name="Line 116" y1="10.958" x2="7.912" transform="translate(3.382 12.312)" fill="none" stroke="#fff" stroke-linejoin="round" stroke-width="2"/>
    <line id="Line_117" data-name="Line 117" x1="7.912" y1="10.958" transform="translate(18.033 12.312)" fill="none" stroke="#fff" stroke-linejoin="round" stroke-width="2"/>
  </g>
</svg>
