<svg id="Group_5337" data-name="Group 5337" xmlns="http://www.w3.org/2000/svg" xmlns:xlink="http://www.w3.org/1999/xlink" width="73" height="54.556" viewBox="0 0 73 54.556">
  <defs>
    <clipPath id="clip-path">
      <rect id="Rectangle_1221" data-name="Rectangle 1221" width="73" height="54.556" fill="none"/>
    </clipPath>
  </defs>
  <g id="Group_5336" data-name="Group 5336" clip-path="url(#clip-path)">
    <path id="Path_1489" data-name="Path 1489" d="M80.665,80.586,91.835,89.6a3.383,3.383,0,0,1,.458,4.785,3.435,3.435,0,0,1-4.813.455L76.307,85.824" transform="translate(-44.392 -46.882)" fill="none" stroke="#687280" stroke-miterlimit="10" stroke-width="1"/>
    <path id="Path_1490" data-name="Path 1490" d="M110.766,93.956l.068.054,3.264,2.545a3.435,3.435,0,0,0,4.811-.458,3.383,3.383,0,0,0-.46-4.787l-2.206-1.689" transform="translate(-64.439 -52.138)" fill="none" stroke="#687280" stroke-miterlimit="10" stroke-width="1"/>
    <path id="Path_1491" data-name="Path 1491" d="M53.927,19.632a12.819,12.819,0,0,0,9.247,4.454" transform="translate(-31.372 -11.421)" fill="none" stroke="#687280" stroke-miterlimit="10" stroke-width="1"/>
    <line id="Line_227" data-name="Line 227" x2="11.174" y2="9.017" transform="translate(40.63 28.466)" fill="none" stroke="#687280" stroke-miterlimit="10" stroke-width="1"/>
    <path id="Path_1492" data-name="Path 1492" d="M104.813,61.717c.081.058.163.111.248.161l.005,0a3.434,3.434,0,0,0,4.375-.76,3.384,3.384,0,0,0-.459-4.786l-.125-.1L90.8,41.413" transform="translate(-52.824 -24.092)" fill="none" stroke="#687280" stroke-miterlimit="10" stroke-width="1"/>
    <path id="Path_1493" data-name="Path 1493" d="M23.095,56.689l3.957,7.08a15.284,15.284,0,0,0,2.681,3.747h0" transform="translate(-13.436 -32.979)" fill="none" stroke="#687280" stroke-miterlimit="10" stroke-width="1"/>
    <path id="Path_1494" data-name="Path 1494" d="M88.251,111.751a3.389,3.389,0,0,1,.113,4.468,3.442,3.442,0,0,1-4.823.455l-3.311-2.718" transform="translate(-46.675 -65.012)" fill="none" stroke="#687280" stroke-miterlimit="10" stroke-width="1"/>
    <path id="Path_1495" data-name="Path 1495" d="M33.421,83.135h0a3.181,3.181,0,0,1,.43,4.5L32.789,88.91a3.23,3.23,0,0,1-4.527.427,3.181,3.181,0,0,1-.43-4.5l1.061-1.276A3.23,3.23,0,0,1,33.421,83.135Z" transform="translate(-15.763 -47.938)" fill="none" stroke="#161615" stroke-miterlimit="10" stroke-width="1"/>
    <path id="Path_1496" data-name="Path 1496" d="M68.977,112.342h0a3.181,3.181,0,0,1,.43,4.5l-1.062,1.276a3.23,3.23,0,0,1-4.527.427,3.182,3.182,0,0,1-.43-4.5l1.062-1.276A3.23,3.23,0,0,1,68.977,112.342Z" transform="translate(-36.447 -64.93)" fill="none" stroke="#161615" stroke-miterlimit="10" stroke-width="1"/>
    <path id="Path_1497" data-name="Path 1497" d="M58.419,98.949h0a3.181,3.181,0,0,1,.43,4.5l-2.32,2.788a3.23,3.23,0,0,1-4.527.427,3.182,3.182,0,0,1-.43-4.5l2.32-2.788A3.23,3.23,0,0,1,58.419,98.949Z" transform="translate(-29.573 -57.138)" fill="none" stroke="#161615" stroke-miterlimit="10" stroke-width="1"/>
    <path id="Path_1498" data-name="Path 1498" d="M47.428,86.678h0a3.181,3.181,0,0,1,.43,4.5l-3.217,3.867a3.23,3.23,0,0,1-4.527.427,3.181,3.181,0,0,1-.43-4.5L42.9,87.1A3.23,3.23,0,0,1,47.428,86.678Z" transform="translate(-22.658 -49.999)" fill="none" stroke="#161615" stroke-miterlimit="10" stroke-width="1"/>
    <line id="Line_228" data-name="Line 228" x1="6.679" y2="7.421" transform="translate(56.032 24.718)" fill="none" stroke="#161615" stroke-miterlimit="10" stroke-width="1"/>
    <path id="Path_1499" data-name="Path 1499" d="M24.049,7.056,8.221,26.08a1.241,1.241,0,0,1-1.739.164L.949,21.7A1.222,1.222,0,0,1,.784,19.97L16.611.946A1.241,1.241,0,0,1,18.351.782l5.533,4.545A1.223,1.223,0,0,1,24.049,7.056Z" transform="translate(-0.291 -0.291)" fill="none" stroke="#f47d15" stroke-miterlimit="10" stroke-width="1"/>
    <path id="Path_1500" data-name="Path 1500" d="M123.734,6.877l12.421,21.376a1.24,1.24,0,0,0,1.688.45l6.217-3.567a1.224,1.224,0,0,0,.453-1.677L132.092,2.083a1.24,1.24,0,0,0-1.688-.449L124.186,5.2A1.223,1.223,0,0,0,123.734,6.877Z" transform="translate(-71.887 -0.855)" fill="none" stroke="#beaf87" stroke-miterlimit="10" stroke-width="1"/>
    <path id="Path_1501" data-name="Path 1501" d="M82.435,28.632,77.8,26.692a3.794,3.794,0,0,0-4.339,1.02l-3.115,3.621a3.906,3.906,0,0,1-4.94.807,3.844,3.844,0,0,1-.763-6.038l8.73-8.7a4.564,4.564,0,0,1,4.167-1.231l7.082,1.5a5.726,5.726,0,0,0,4.756-1.287" transform="translate(-36.949 -9.347)" fill="none" stroke="#161615" stroke-miterlimit="10" stroke-width="1"/>
  </g>
</svg>
