<svg xmlns="http://www.w3.org/2000/svg" width="17.982" height="17.98" viewBox="0 0 17.982 17.98">
  <g id="Group_6264" data-name="Group 6264" transform="translate(-125.037 -11249.271)">
    <path id="Path_1515" data-name="Path 1515" d="M344.858,22.66a4.557,4.557,0,1,0,4.557,4.557,4.562,4.562,0,0,0-4.557-4.557m0,7.882a3.325,3.325,0,1,1,3.326-3.325,3.33,3.33,0,0,1-3.326,3.325" transform="translate(-210.83 11231.045)" fill="#fff"/>
    <path id="Path_1516" data-name="Path 1516" d="M384.357,14.538a1.108,1.108,0,1,1-1.108-1.108,1.108,1.108,0,0,1,1.108,1.108" transform="translate(-244.294 11238.428)" fill="#fff"/>
    <path id="Path_1517" data-name="Path 1517" d="M331.907.511h-9.528a4.23,4.23,0,0,0-4.227,4.226v9.53a4.23,4.23,0,0,0,4.227,4.226h9.528a4.231,4.231,0,0,0,4.227-4.226V4.737A4.231,4.231,0,0,0,331.907.511m3,13.755a3,3,0,0,1-3,2.994h-9.528a3,3,0,0,1-3-2.994V4.737a3,3,0,0,1,3-2.994h9.528a3,3,0,0,1,3,2.994Z" transform="translate(-193.115 11248.761)" fill="#fff"/>
  </g>
</svg>
