<svg id="Maison" xmlns="http://www.w3.org/2000/svg" xmlns:xlink="http://www.w3.org/1999/xlink" width="86.35" height="47.621" viewBox="0 0 86.35 47.621">
  <defs>
    <clipPath id="clip-path">
      <rect id="Rectangle_1470" data-name="Rectangle 1470" width="86.35" height="47.621" fill="none" stroke="#000" stroke-width="1"/>
    </clipPath>
  </defs>
  <path id="Path_1521" data-name="Path 1521" d="M106.161,50.04l6.545-11.45h19.459" transform="translate(-83.29 -30.276)" fill="none" stroke="#beaf87" stroke-linecap="round" stroke-linejoin="round" stroke-width="1"/>
  <g id="Group_5748" data-name="Group 5748">
    <g id="Group_5747" data-name="Group 5747" clip-path="url(#clip-path)">
      <path id="Path_1522" data-name="Path 1522" d="M276.852,53.594l17.531-.09L285.858,38.59H266.392" transform="translate(-209.002 -30.276)" fill="none" stroke="#beaf87" stroke-linecap="round" stroke-linejoin="round" stroke-width="1"/>
    </g>
  </g>
  <g id="Group_5750" data-name="Group 5750">
    <g id="Group_5749" data-name="Group 5749" clip-path="url(#clip-path)">
      <line id="Line_296" data-name="Line 296" y2="23.424" transform="translate(25.693 23.227)" fill="none" stroke="#000" stroke-linecap="round" stroke-linejoin="round" stroke-width="1"/>
      <line id="Line_294" data-name="Line 294" y2="21.868" transform="translate(40.484 24.784)" fill="none" stroke="#000" stroke-linecap="round" stroke-linejoin="round" stroke-width="1"/>
      <line id="Line_295" data-name="Line 295" y2="21.868" transform="translate(65.827 24.784)" fill="none" stroke="#000" stroke-linecap="round" stroke-linejoin="round" stroke-width="1"/>
      <path id="Path_1524" data-name="Path 1524" d="M222.577,153.665V136.4h10.8v17.266" transform="translate(-174.626 -107.014)" fill="none" stroke="#000" stroke-linecap="round" stroke-linejoin="round" stroke-width="1"/>
      <line id="Line_297" data-name="Line 297" y2="23.424" transform="translate(80.683 23.227)" fill="none" stroke="#000" stroke-linecap="round" stroke-linejoin="round" stroke-width="1"/>
      <line id="Line_298" data-name="Line 298" x2="81.222" transform="translate(2.08 46.651)" fill="none" stroke="#000" stroke-linecap="round" stroke-linejoin="round" stroke-width="1"/>
    </g>
  </g>
  <rect id="Rectangle_1472" data-name="Rectangle 1472" width="6.219" height="8.215" transform="translate(29.866 27.503)" fill="none" stroke="#000" stroke-linecap="round" stroke-linejoin="round" stroke-width="1"/>
  <rect id="Rectangle_1473" data-name="Rectangle 1473" width="6.219" height="8.215" transform="translate(70.145 27.503)" fill="none" stroke="#000" stroke-linecap="round" stroke-linejoin="round" stroke-width="1"/>
  <g id="Group_5752" data-name="Group 5752">
    <g id="Group_5751" data-name="Group 5751" clip-path="url(#clip-path)">
      <line id="Line_299" data-name="Line 299" y1="17.656" transform="translate(16.019 28.104)" fill="none" stroke="#beaf87" stroke-linecap="round" stroke-linejoin="round" stroke-width="1"/>
      <line id="Line_300" data-name="Line 300" y1="9.855" transform="translate(6.035 36.846)" fill="none" stroke="#beaf87" stroke-linecap="round" stroke-linejoin="round" stroke-width="1"/>
      <path id="Path_1526" data-name="Path 1526" d="M14.63,90.5c0-2.8-2.268-14.889-5.065-14.889S4.5,87.7,4.5,90.5a5.065,5.065,0,1,0,10.13,0Z" transform="translate(-3.531 -59.323)" fill="none" stroke="#000" stroke-linecap="round" stroke-linejoin="round" stroke-width="1"/>
    </g>
  </g>
  <path id="Path_1523" data-name="Path 1523" d="M202.434,38.353,186.058,22.029l-16.6,16.742,3.3,3.3L186.1,28.714l13.353,13.353Z" transform="translate(-132.947 -17.283)" fill="none" stroke="#beaf87" stroke-linecap="round" stroke-linejoin="round" stroke-width="1"/>
  <line id="Line_293" data-name="Line 293" x1="15.605" transform="translate(22.344 23.227)" fill="none" stroke="#beaf87" stroke-linecap="round" stroke-linejoin="round" stroke-width="1"/>
  <path id="Path_1527" data-name="Path 1527" d="M56.694,24.154C56.694,20.461,53.7,4.5,50.008,4.5s-6.686,15.96-6.686,19.653a6.686,6.686,0,0,0,13.372,0Z" transform="translate(-33.989 -3.531)" fill="none" stroke="#000" stroke-linecap="round" stroke-linejoin="round" stroke-width="1"/>
</svg>
