<svg id="Group_5865" data-name="Group 5865" xmlns="http://www.w3.org/2000/svg" xmlns:xlink="http://www.w3.org/1999/xlink" width="42.833" height="42.403" viewBox="0 0 42.833 42.403">
  <defs>
    <clipPath id="clip-path">
      <rect id="Rectangle_1481" data-name="Rectangle 1481" width="42.833" height="42.403" fill="none"/>
    </clipPath>
  </defs>
  <g id="Group_5862" data-name="Group 5862">
    <g id="Group_5861" data-name="Group 5861" clip-path="url(#clip-path)">
      <path id="Path_1528" data-name="Path 1528" d="M6.938,18.317,8.87,21.9l4,.729-2.811,2.944.544,4.034L6.938,27.844,3.27,29.608l.544-4.034L1,22.629l4-.729Z" transform="translate(-0.752 -13.733)" fill="none" stroke="#beaf87" stroke-miterlimit="10" stroke-width="1"/>
      <path id="Path_1529" data-name="Path 1529" d="M64.193,1.054l2.323,4.311,4.818.878L67.953,9.784l.654,4.853-4.413-2.122L59.78,14.637l.654-4.853L57.052,6.243l4.818-.878Z" transform="translate(-42.777 -0.79)" fill="none" stroke="#f47d15" stroke-miterlimit="10" stroke-width="1"/>
      <path id="Path_1530" data-name="Path 1530" d="M128.67,18.317,130.6,21.9l4,.729L131.8,25.574l.544,4.034-3.669-1.764L125,29.608l.544-4.034-2.811-2.944,4-.729Z" transform="translate(-92.024 -13.733)" fill="none" stroke="#687280" stroke-miterlimit="10" stroke-width="1"/>
    </g>
  </g>
  <line id="Line_302" data-name="Line 302" x1="9.69" y1="12.768" transform="translate(7.536 20.706)" fill="none" stroke="#161615" stroke-miterlimit="10" stroke-width="1"/>
  <line id="Line_303" data-name="Line 303" y1="12.768" x2="9.69" transform="translate(25.623 20.706)" fill="none" stroke="#161615" stroke-miterlimit="10" stroke-width="1"/>
  <g id="Group_5864" data-name="Group 5864">
    <g id="Group_5863" data-name="Group 5863" clip-path="url(#clip-path)">
      <path id="Path_1531" data-name="Path 1531" d="M76.779,141.641v-8.291a.989.989,0,0,0-.99-.989l-6.881,0a.989.989,0,0,0-.988.99v8.291" transform="translate(-50.925 -99.242)" fill="none" stroke="#beaf87" stroke-miterlimit="10" stroke-width="1"/>
      <path id="Path_1532" data-name="Path 1532" d="M76.442,81.715a4.581,4.581,0,1,1-4.581-4.581A4.581,4.581,0,0,1,76.442,81.715Z" transform="translate(-50.445 -57.833)" fill="none" stroke="#161615" stroke-miterlimit="10" stroke-width="1"/>
    </g>
  </g>
</svg>
