<svg xmlns="http://www.w3.org/2000/svg" xmlns:xlink="http://www.w3.org/1999/xlink" width="44.101" height="35.667" viewBox="0 0 44.101 35.667">
  <defs>
    <clipPath id="clip-path">
      <rect id="Rectangle_1517" data-name="Rectangle 1517" width="44.101" height="35.667" fill="none"/>
    </clipPath>
  </defs>
  <g id="Group_5876" data-name="Group 5876" clip-path="url(#clip-path)">
    <path id="Path_1542" data-name="Path 1542" d="M6.166,18.649H1.736A1.236,1.236,0,0,0,.5,19.885v4.194H39.089V19.885a1.236,1.236,0,0,0-1.236-1.236h-4.38" transform="translate(0.609 -13.954)" fill="none" stroke="#f47d15" stroke-miterlimit="10" stroke-width="1"/>
    <path id="Path_1543" data-name="Path 1543" d="M30.08.5h0a.984.984,0,0,1,.984.984V6.427a.984.984,0,0,1-1.967,0V1.484A.984.984,0,0,1,30.08.5Z" transform="translate(-22.337 0.609)" fill="none" stroke="#161615" stroke-miterlimit="10" stroke-width="1"/>
    <path id="Path_1544" data-name="Path 1544" d="M158.356.5h0a.984.984,0,0,1,.984.984V6.427a.984.984,0,0,1-1.967,0V1.484A.984.984,0,0,1,158.356.5Z" transform="translate(-125.27 0.609)" fill="none" stroke="#161615" stroke-miterlimit="10" stroke-width="1"/>
    <rect id="Rectangle_1503" data-name="Rectangle 1503" width="4.683" height="4.683" transform="translate(4.523 13.291)" fill="none" stroke="#687280" stroke-miterlimit="10" stroke-width="1"/>
    <rect id="Rectangle_1504" data-name="Rectangle 1504" width="4.683" height="4.683" transform="translate(11.342 13.291)" fill="none" stroke="#687280" stroke-miterlimit="10" stroke-width="1"/>
    <rect id="Rectangle_1505" data-name="Rectangle 1505" width="4.683" height="4.683" transform="translate(18.161 13.291)" fill="none" stroke="#161615" stroke-miterlimit="10" stroke-width="1"/>
    <rect id="Rectangle_1506" data-name="Rectangle 1506" width="4.683" height="4.683" transform="translate(24.981 13.291)" fill="none" stroke="#161615" stroke-miterlimit="10" stroke-width="1"/>
    <rect id="Rectangle_1507" data-name="Rectangle 1507" width="4.683" height="4.683" transform="translate(31.8 13.291)" fill="none" stroke="#161615" stroke-miterlimit="10" stroke-width="1"/>
    <rect id="Rectangle_1508" data-name="Rectangle 1508" width="4.683" height="4.683" transform="translate(4.523 20.252)" fill="none" stroke="#161615" stroke-miterlimit="10" stroke-width="1"/>
    <rect id="Rectangle_1509" data-name="Rectangle 1509" width="4.683" height="4.683" transform="translate(11.342 20.252)" fill="none" stroke="#687280" stroke-miterlimit="10" stroke-width="1"/>
    <rect id="Rectangle_1510" data-name="Rectangle 1510" width="4.683" height="4.683" transform="translate(18.161 20.252)" fill="none" stroke="#161615" stroke-miterlimit="10" stroke-width="1"/>
    <rect id="Rectangle_1511" data-name="Rectangle 1511" width="4.683" height="4.683" transform="translate(31.8 20.252)" fill="none" stroke="#687280" stroke-miterlimit="10" stroke-width="1"/>
    <rect id="Rectangle_1512" data-name="Rectangle 1512" width="4.683" height="4.683" transform="translate(4.523 27.212)" fill="none" stroke="#161615" stroke-miterlimit="10" stroke-width="1"/>
    <rect id="Rectangle_1513" data-name="Rectangle 1513" width="4.683" height="4.683" transform="translate(11.342 27.212)" fill="none" stroke="#161615" stroke-miterlimit="10" stroke-width="1"/>
    <rect id="Rectangle_1514" data-name="Rectangle 1514" width="4.683" height="4.683" transform="translate(18.161 27.212)" fill="none" stroke="#161615" stroke-miterlimit="10" stroke-width="1"/>
    <rect id="Rectangle_1515" data-name="Rectangle 1515" width="4.683" height="4.683" transform="translate(24.981 27.212)" fill="none" stroke="#687280" stroke-miterlimit="10" stroke-width="1"/>
    <rect id="Rectangle_1516" data-name="Rectangle 1516" width="4.683" height="4.683" transform="translate(31.8 27.212)" fill="none" stroke="#161615" stroke-miterlimit="10" stroke-width="1"/>
    <path id="Path_1546" data-name="Path 1546" d="M123.923,97.043a2.785,2.785,0,1,1-2.785,2.785,2.785,2.785,0,0,1,2.785-2.785" transform="translate(-96.544 -77.21)" fill="#b49f73"/>
    <line id="Line_306" data-name="Line 306" y1="2.498" x2="1.876" transform="translate(27.496 21.053)" fill="none" stroke="#fff" stroke-linecap="round" stroke-linejoin="round" stroke-width="1"/>
    <line id="Line_307" data-name="Line 307" x2="1.032" y2="1.22" transform="translate(26.46 22.335)" fill="none" stroke="#fff" stroke-linecap="round" stroke-linejoin="round" stroke-width="1"/>
  </g>
</svg>
