<svg id="Group_1588" data-name="Group 1588" xmlns="http://www.w3.org/2000/svg" xmlns:xlink="http://www.w3.org/1999/xlink" width="24.336" height="24.336" viewBox="0 0 24.336 24.336">
  <defs>
    <clipPath id="clip-path">
      <rect id="Rectangle_348" data-name="Rectangle 348" width="24.336" height="24.336" fill="none" stroke="#fff" stroke-width="2"/>
    </clipPath>
  </defs>
  <g id="Group_1282" data-name="Group 1282" clip-path="url(#clip-path)">
    <path id="Path_888" data-name="Path 888" d="M3.387,12.629a15.775,15.775,0,0,1-1.9-4.948A6.193,6.193,0,0,1,3.83,1.726a1.265,1.265,0,0,1,2.027.388l.988,1.773C7.629,5.292,8.021,6,7.943,6.74S7.337,8.092,6.281,9.306Zm0,0A26.051,26.051,0,0,0,12.759,22m0,0a15.775,15.775,0,0,0,4.948,1.9,6.193,6.193,0,0,0,5.955-2.347,1.265,1.265,0,0,0-.388-2.027L21.5,18.542c-1.406-.783-2.108-1.175-2.854-1.1s-1.351.606-2.565,1.662Z" transform="translate(-0.526 -0.526)" fill="none" stroke="#fff" stroke-linejoin="round" stroke-width="2"/>
  </g>
</svg>
